HIERARCHY
ROOT Hips
{
	OFFSET -1.602300 6.242603 43.997101
	CHANNELS 6 Xposition Yposition Zposition Zrotation Xrotation Yrotation
	JOINT Chest
	{
		OFFSET -0.204900 1.598101 7.917301
		CHANNELS 6 Xposition Yposition Zposition Zrotation Xrotation Yrotation
		JOINT Chest2
		{
			OFFSET 0.000000 0.000000 3.404099
			CHANNELS 6 Xposition Yposition Zposition Zrotation Xrotation Yrotation
			JOINT Neck
			{
				OFFSET 0.000000 0.000000 7.928600
				CHANNELS 6 Xposition Yposition Zposition Zrotation Xrotation Yrotation
				JOINT Head
				{
					OFFSET 0.000000 0.000000 2.173897
					CHANNELS 6 Xposition Yposition Zposition Zrotation Xrotation Yrotation
					End Site
					{
						OFFSET 0.000000 0.000001 10.404503
					}
				}
			}
			JOINT LeftCollar
			{
				OFFSET 2.833800 -1.396299 4.843300
				CHANNELS 6 Xposition Yposition Zposition Zrotation Xrotation Yrotation
				JOINT LeftShoulder
				{
					OFFSET 4.363600 0.000000 0.000000
					CHANNELS 6 Xposition Yposition Zposition Zrotation Xrotation Yrotation
					JOINT LeftElbow
					{
						OFFSET 0.000000 -0.000001 -10.306900
						CHANNELS 6 Xposition Yposition Zposition Zrotation Xrotation Yrotation
						JOINT LeftWrist
						{
							OFFSET 0.000000 -0.000001 -12.404900
							CHANNELS 6 Xposition Yposition Zposition Zrotation Xrotation Yrotation
							End Site
							{
								OFFSET 0.000000 0.000000 -2.173901
							}
						}
					}
				}
			}
			JOINT RightCollar
			{
				OFFSET -2.354800 -1.897200 5.063099
				CHANNELS 6 Xposition Yposition Zposition Zrotation Xrotation Yrotation
				JOINT RightShoulder
				{
					OFFSET -4.375800 0.000000 0.000000
					CHANNELS 6 Xposition Yposition Zposition Zrotation Xrotation Yrotation
					JOINT RightElbow
					{
						OFFSET 0.000000 -0.000001 -10.005001
						CHANNELS 6 Xposition Yposition Zposition Zrotation Xrotation Yrotation
						JOINT RightWrist
						{
							OFFSET 0.000000 -0.000001 -13.174900
							CHANNELS 6 Xposition Yposition Zposition Zrotation Xrotation Yrotation
							End Site
							{
								OFFSET 0.000000 0.000000 -2.173901
							}
						}
					}
				}
			}
		}
	}
	JOINT LeftHip
	{
		OFFSET 2.240600 0.386800 -2.614101
		CHANNELS 6 Xposition Yposition Zposition Zrotation Xrotation Yrotation
		JOINT LeftKnee
		{
			OFFSET 0.000000 -0.000001 -18.592899
			CHANNELS 6 Xposition Yposition Zposition Zrotation Xrotation Yrotation
			JOINT LeftAnkle
			{
				OFFSET 0.000000 -0.000001 -18.765800
				CHANNELS 6 Xposition Yposition Zposition Zrotation Xrotation Yrotation
				End Site
				{
					OFFSET 0.000000 -8.655000 0.000000
				}
			}
		}
	}
	JOINT RightHip
	{
		OFFSET -2.014900 -0.220900 -2.615898
		CHANNELS 6 Xposition Yposition Zposition Zrotation Xrotation Yrotation
		JOINT RightKnee
		{
			OFFSET 0.000000 -0.000001 -18.633900
			CHANNELS 6 Xposition Yposition Zposition Zrotation Xrotation Yrotation
			JOINT RightAnkle
			{
				OFFSET 0.000000 -0.000001 -18.285101
				CHANNELS 6 Xposition Yposition Zposition Zrotation Xrotation Yrotation
				End Site
				{
					OFFSET 0.000000 -7.524500 0.000000
				}
			}
		}
	}
}
MOTION
Frames: 7
Frame Time: 0.041667
6.963600 10.097404 39.956909 -7.716020 6.787214 -1.308220 -0.204900 1.598100 7.917310 6.770729 26.473870 0.726398 0.000000 -0.000001 3.404103 0.455300 -6.217366 -0.239690 -0.000000 -0.000003 7.928601 -1.202094 12.703868 3.653394 0.000000 0.000000 2.173900 1.289138 0.827601 1.660342 2.833799 -1.396304 4.843299 0.995321 0.209770 4.278492 4.363596 0.000002 -0.000001 -47.435633 -1.321481 -31.085465 0.000001 -0.000003 -10.306890 -155.574470 -181.039505 -179.480064 0.000000 0.000004 -12.404896 -88.197673 170.829274 -150.073258 -2.354801 -1.897202 5.063100 13.608623 -1.588600 0.322611 -4.375794 0.000005 0.000012 33.879589 1.855963 35.418390 0.000001 -0.000001 -10.004989 -52.945560 -2.461922 -1.924781 -0.000003 0.000004 -13.174896 -60.407375 -10.254474 -28.696309 2.240600 0.386801 -2.614094 34.097288 -32.291833 11.177990 0.000001 -0.000001 -18.592894 -37.728172 57.512734 36.763322 0.000000 -0.000004 -18.765800 18.057074 -9.901497 2.153553 -2.014896 -0.220898 -2.615893 -112.506487 -31.860732 -52.507578 -0.000004 0.000005 -18.633892 127.104821 67.621646 -83.466756 0.000003 0.000002 -18.285101 -7.036843 33.977305 -19.925660
7.001800 10.065906 39.943905 -7.855764 6.626910 -1.383691 -0.204899 1.598101 7.917314 6.896633 26.295714 0.715719 0.000000 0.000003 3.404104 0.443981 -6.185292 -0.238297 -0.000000 -0.000002 7.928596 -1.135084 12.673023 3.712972 0.000001 0.000004 2.173898 1.309869 0.901682 1.673934 2.833801 -1.396301 4.843306 1.115667 0.145856 4.334380 4.363597 0.000002 0.000003 -47.072967 -0.736348 -30.870239 0.000001 -0.000003 -10.306887 -155.122257 -181.164170 -179.607829 0.000000 0.000009 -12.404888 -87.344766 170.622046 -150.691144 -2.354801 -1.897202 5.063102 13.572901 -1.583592 0.353886 -4.375796 0.000003 0.000014 33.582835 2.308534 35.481917 -0.000000 -0.000000 -10.004993 -52.771025 -2.479233 -1.832689 -0.000000 0.000004 -13.174892 -61.626024 -10.096281 -28.244268 2.240600 0.386809 -2.614097 33.861780 -32.074333 11.117215 0.000001 -0.000001 -18.592903 -38.052405 57.351685 37.171549 0.000000 -0.000003 -18.765800 18.569036 -10.055106 2.244217 -2.014895 -0.220895 -2.615893 -112.520045 -31.960733 -52.507513 -0.000006 0.000006 -18.633892 127.513061 67.601183 -83.764545 0.000005 0.000003 -18.285099 -7.248135 33.915397 -19.898368
7.040402 10.033303 39.930706 -7.995142 6.484723 -1.460982 -0.204898 1.598096 7.917307 7.022814 26.096841 0.697923 0.000000 -0.000004 3.404103 0.440117 -6.151350 -0.235113 0.000001 -0.000000 7.928608 -1.091128 12.633276 3.795021 0.000000 0.000003 2.173895 1.355900 0.985843 1.679612 2.833802 -1.396299 4.843309 1.260008 0.075649 4.393100 4.363597 0.000006 0.000001 -46.796276 -0.117592 -30.698094 0.000001 -0.000001 -10.306893 -154.332181 -181.282113 -179.703711 0.000002 0.000005 -12.404891 -86.564684 170.324113 -151.129888 -2.354800 -1.897199 5.063106 13.520482 -1.595489 0.345349 -4.375797 0.000000 0.000015 33.248511 2.763370 35.579726 0.000000 0.000002 -10.004992 -52.537299 -2.522353 -1.762208 -0.000001 0.000005 -13.174895 -62.920959 -9.929764 -27.770694 2.240600 0.386800 -2.614097 33.626206 -31.869123 11.067911 0.000001 -0.000001 -18.592892 -38.347083 57.194283 37.548309 -0.000001 -0.000004 -18.765800 19.020567 -10.228429 2.467473 -2.014893 -0.220900 -2.615900 -112.491276 -32.122141 -52.497278 -0.000008 0.000008 -18.633890 128.024560 67.303871 -84.186207 0.000003 0.000004 -18.285099 -7.575330 33.686834 -20.315496
7.077301 10.003504 39.921303 -7.992486 6.406512 -1.552909 -0.204899 1.598097 7.917307 7.009310 25.820615 0.672021 0.000001 -0.000005 3.404112 0.437682 -6.107803 -0.231054 -0.000000 0.000002 7.928601 -1.040412 12.597620 3.879992 0.000001 0.000001 2.173903 1.377932 1.070468 1.671769 2.833802 -1.396297 4.843302 1.429259 -0.035255 4.457354 4.363598 -0.000006 -0.000003 -46.419048 0.460939 -30.499940 0.000004 -0.000004 -10.306890 -153.524197 -181.386342 -179.818103 -0.000002 0.000003 -12.404893 -85.848115 170.170147 -152.171478 -2.354800 -1.897196 5.063108 13.441762 -1.651260 0.379800 -4.375794 0.000002 0.000012 32.909204 3.196962 35.631266 0.000000 0.000001 -10.004992 -57.369306 -2.279302 -2.021600 -0.000002 0.000006 -13.174892 -59.074443 -9.962929 -27.439544 2.240601 0.386801 -2.614101 33.365730 -31.729316 11.099031 -0.000000 0.000001 -18.592896 -38.579279 57.102827 37.840631 0.000001 -0.000002 -18.765800 19.361286 -10.387411 2.675406 -2.014896 -0.220898 -2.615897 -112.698135 -32.211616 -52.590711 -0.000006 0.000004 -18.633894 128.691050 66.840129 -84.670720 0.000003 0.000003 -18.285101 -7.926865 33.333406 -20.719906
7.113698 9.977804 39.917603 -7.740936 6.421553 -1.665849 -0.204901 1.598098 7.917308 6.753494 25.424829 0.626153 -0.000001 0.000002 3.404100 0.441838 -6.074382 -0.226212 0.000001 0.000000 7.928598 -0.183228 12.657163 3.201564 0.000000 -0.000000 2.173901 0.571256 1.106580 2.272872 2.833802 -1.396297 4.843309 1.507024 0.174031 4.681845 4.363598 0.000001 0.000004 -45.717625 0.778763 -30.648466 0.000001 0.000001 -10.306890 -152.757618 -181.492101 -179.930200 -0.000001 0.000005 -12.404896 -85.300470 169.919356 -152.882583 -2.354801 -1.897200 5.063102 13.354815 -1.670133 0.394170 -4.375795 0.000002 0.000010 32.577192 3.628777 35.716050 0.000000 -0.000001 -10.004992 -58.405453 -2.266966 -2.024455 -0.000000 0.000005 -13.174896 -59.013087 -9.861273 -27.123550 2.240599 0.386804 -2.614098 33.100750 -31.682963 11.281522 0.000001 -0.000002 -18.592896 -38.829496 57.105398 38.049707 -0.000000 -0.000002 -18.765800 19.566851 -10.532950 2.854352 -2.014899 -0.220896 -2.615892 -113.224094 -32.226871 -52.797526 -0.000008 0.000003 -18.633896 129.324851 66.360889 -85.077198 0.000004 0.000003 -18.285099 -8.499057 32.856598 -21.233639
7.146899 9.959904 39.920609 -7.376665 6.570482 -1.784322 -0.204900 1.598096 7.917306 6.391989 24.863791 0.561378 -0.000000 -0.000003 3.404090 0.447207 -6.049950 -0.219779 0.000000 0.000002 7.928599 -0.181821 12.656236 3.397301 0.000000 -0.000001 2.173897 0.626482 1.172100 2.192673 2.833800 -1.396297 4.843307 1.518584 0.247404 4.866846 4.363598 0.000000 -0.000003 -45.087032 1.280600 -30.648439 0.000002 -0.000002 -10.306893 -151.657862 -181.550021 -180.032927 0.000000 0.000005 -12.404888 -84.756405 169.669931 -153.664025 -2.354801 -1.897200 5.063106 13.337357 -1.590872 0.388615 -4.375799 0.000001 0.000006 32.135302 4.002895 35.864292 -0.000001 0.000002 -10.004990 -59.440664 -2.267564 -2.036873 -0.000001 0.000005 -13.174895 -58.886879 -9.752100 -26.834737 2.240599 0.386803 -2.614094 33.084238 -31.765827 11.682092 -0.000001 0.000000 -18.592896 -39.129983 57.238099 38.147327 0.000001 -0.000004 -18.765802 19.593666 -10.649645 2.971952 -2.014896 -0.220899 -2.615893 -113.806702 -32.255497 -53.081215 -0.000008 0.000002 -18.633892 129.565396 66.144317 -85.227975 0.000005 0.000004 -18.285099 -9.096491 32.376244 -21.232859
7.177899 9.952004 39.930805 -6.443391 6.809162 -2.044323 -0.204900 1.598097 7.917305 5.430514 24.211702 0.607637 -0.000001 0.000005 3.404097 0.473505 -6.036324 -0.213348 0.000001 -0.000003 7.928605 -0.196084 12.667525 3.577211 0.000001 0.000002 2.173900 0.676427 1.215902 2.100937 2.833802 -1.396303 4.843304 1.508096 0.322619 5.065742 4.363595 0.000004 0.000004 -44.446896 1.801050 -30.675326 0.000003 0.000001 -10.306895 -150.661938 -181.608487 -180.159708 0.000001 0.000005 -12.404892 -84.400087 169.470476 -153.899694 -2.354800 -1.897201 5.063106 13.310508 -1.510718 0.360860 -4.375793 0.000001 0.000005 31.702378 4.377006 36.003819 0.000002 0.000001 -10.004998 -60.369290 -2.287676 -2.027202 0.000000 0.000005 -13.174899 -58.854108 -9.668641 -26.570507 2.240600 0.386804 -2.614100 32.628090 -31.914315 12.262101 0.000000 -0.000000 -18.592899 -39.282890 57.448161 38.113210 -0.000000 -0.000003 -18.765800 19.543956 -10.723762 2.984943 -2.014897 -0.220898 -2.615898 -115.345339 -32.019906 -53.710668 -0.000006 0.000006 -18.633892 130.074724 66.150457 -85.301543 0.000004 0.000004 -18.285103 -9.751815 31.915039 -20.767416
